<?xml version="1.0" standalone="no"?>
<!DOCTYPE svg PUBLIC "-//W3C//DTD SVG 20010904//EN"
 "http://www.w3.org/TR/2001/REC-SVG-20010904/DTD/svg10.dtd">
<svg version="1.0" xmlns="http://www.w3.org/2000/svg"
 width="123.000000pt" height="123.000000pt" viewBox="0 0 123.000000 123.000000"
 preserveAspectRatio="xMidYMid meet">
<metadata>
Created by potrace 1.11, written by Peter Selinger 2001-2013
</metadata>
<g transform="translate(0.000000,123.000000) scale(0.100000,-0.100000)"
fill="#000000" stroke="none">
<path d="M600 1175 c-52 -30 -102 -59 -110 -65 -8 -6 -24 -14 -35 -20 -11 -5
-108 -60 -215 -123 l-195 -113 -3 -96 -3 -95 83 -48 c83 -47 83 -47 113 -30
17 10 54 31 83 47 l52 30 0 -284 0 -283 82 -48 81 -47 82 46 81 47 0 102 c-1
64 3 101 9 99 6 -2 42 16 80 40 l70 43 3 95 3 96 -83 49 -83 48 1 90 c1 55 5
89 11 88 6 -1 79 -43 164 -92 l153 -89 46 26 c25 14 62 36 83 49 l37 23 0 93
0 93 -111 64 c-61 36 -130 76 -153 89 -22 13 -61 35 -85 49 -25 14 -67 38 -93
53 -27 16 -50 29 -51 29 -1 0 -45 -25 -97 -55z"/>
</g>
</svg>
