<svg width="512" height="512" viewBox="0 0 512 512" fill="none" xmlns="http://www.w3.org/2000/svg">
<path d="M99.8637 308.524H37.4091V162.857H27L27.0496 121H68.6859L68.7107 162.857H58.3016L58.7477 287.714H79.0455V142.048H141.5V162.857V350.663H162.318V78.5786H224.773V391.762H245.591V38H308.045V454.19H328.864V121.238H391.318V369.912L412.136 370.952V204.476H474.591V370.952H485V412.571H443.364V370.952H453.773V225.286H433.475L432.955 391.762H369.98L370.5 142.048H349.682V475H287.227V58.8095H266.409V412.571H203.955V101.469H184.177V370.952H120.682V162.857H99.8637V308.524Z" fill="url(#paint0_linear)"/>
<defs>
<linearGradient id="paint0_linear" x1="54.0636" y1="197.984" x2="54.0636" y2="336.492" gradientUnits="userSpaceOnUse">
<stop stop-color="#F28622"/>
<stop offset="1" stop-color="#F2AD22"/>
</linearGradient>
</defs>
</svg>
